<mxfile host="app.diagrams.net" modified="2022-02-13T09:19:56.979Z" agent="5.0 (Macintosh; Intel Mac OS X 10_15_7) AppleWebKit/605.1.15 (KHTML, like Gecko) Version/15.2 Safari/605.1.15" etag="F4W7DrYRV8Bh4O3g6ka8" version="16.5.6" type="github">
  <diagram id="OyNE9mDJgAzKVrxD7RZc" name="Page-1">
    <mxGraphModel dx="659" dy="457" grid="1" gridSize="10" guides="1" tooltips="1" connect="1" arrows="1" fold="1" page="1" pageScale="1" pageWidth="827" pageHeight="1169" math="0" shadow="0">
      <root>
        <mxCell id="0" />
        <mxCell id="1" parent="0" />
        <mxCell id="J9Pbq-aJtwn1_507NRoF-12" value="" style="rounded=0;whiteSpace=wrap;html=1;fontSize=15;" vertex="1" parent="1">
          <mxGeometry x="170" y="395" width="340" height="115" as="geometry" />
        </mxCell>
        <mxCell id="J9Pbq-aJtwn1_507NRoF-14" value="教えあいチャット" style="text;html=1;strokeColor=none;fillColor=none;align=left;verticalAlign=middle;whiteSpace=wrap;rounded=0;fontSize=24;fontStyle=1;fontColor=#FF3399;" vertex="1" parent="1">
          <mxGeometry x="189" y="412.25" width="200" height="30" as="geometry" />
        </mxCell>
        <mxCell id="J9Pbq-aJtwn1_507NRoF-15" value="普通のチャットに加え、教えあいに便利なさまざまな機能が使えます。" style="text;html=1;strokeColor=none;fillColor=none;align=left;verticalAlign=middle;whiteSpace=wrap;rounded=0;fontSize=15;fontStyle=0" vertex="1" parent="1">
          <mxGeometry x="189" y="442.25" width="290" height="52.5" as="geometry" />
        </mxCell>
        <mxCell id="J9Pbq-aJtwn1_507NRoF-16" value="" style="rounded=0;whiteSpace=wrap;html=1;fontSize=15;" vertex="1" parent="1">
          <mxGeometry x="200" y="510" width="310" height="160" as="geometry" />
        </mxCell>
        <mxCell id="J9Pbq-aJtwn1_507NRoF-19" value="&lt;font color=&quot;#000000&quot; style=&quot;font-size: 17px;&quot;&gt;&lt;span style=&quot;font-size: 17px;&quot;&gt;数式入力&lt;/span&gt;&lt;/font&gt;" style="text;html=1;strokeColor=none;fillColor=none;align=left;verticalAlign=middle;whiteSpace=wrap;rounded=0;fontSize=17;fontStyle=1;fontColor=#FF3399;" vertex="1" parent="1">
          <mxGeometry x="220" y="520" width="200" height="30" as="geometry" />
        </mxCell>
        <mxCell id="J9Pbq-aJtwn1_507NRoF-20" value="一般のチャット画面で、数式を入力して送信できます。&lt;br&gt;&lt;br&gt;例：" style="text;html=1;strokeColor=none;fillColor=none;align=left;verticalAlign=top;whiteSpace=wrap;rounded=0;fontSize=12;fontStyle=0" vertex="1" parent="1">
          <mxGeometry x="220" y="550" width="270" height="40" as="geometry" />
        </mxCell>
        <mxCell id="J9Pbq-aJtwn1_507NRoF-23" value="" style="triangle;whiteSpace=wrap;html=1;fontSize=17;fontColor=#000000;verticalAlign=middle;rounded=0;horizontal=0;fillColor=none;strokeColor=default;strokeWidth=0.5;" vertex="1" parent="1">
          <mxGeometry x="486" y="603" width="10" height="10" as="geometry" />
        </mxCell>
        <mxCell id="J9Pbq-aJtwn1_507NRoF-22" value="" style="rounded=1;whiteSpace=wrap;html=1;fontSize=17;arcSize=21;horizontal=0;fillColor=none;strokeColor=default;strokeWidth=0.5;" vertex="1" parent="1">
          <mxGeometry x="252" y="594" width="234" height="50" as="geometry" />
        </mxCell>
        <mxCell id="J9Pbq-aJtwn1_507NRoF-26" value="" style="shape=image;verticalLabelPosition=bottom;labelBackgroundColor=default;verticalAlign=top;aspect=fixed;imageAspect=0;image=data:image/png,iVBORw0KGgoAAAANSUhEUgAAALwAAAAwCAYAAACrOxAIAAAEDmlDQ1BrQ0dDb2xvclNwYWNlR2VuZXJpY1JHQgAAOI2NVV1oHFUUPpu5syskzoPUpqaSDv41lLRsUtGE2uj+ZbNt3CyTbLRBkMns3Z1pJjPj/KRpKT4UQRDBqOCT4P9bwSchaqvtiy2itFCiBIMo+ND6R6HSFwnruTOzu5O4a73L3PnmnO9+595z7t4LkLgsW5beJQIsGq4t5dPis8fmxMQ6dMF90A190C0rjpUqlSYBG+PCv9rt7yDG3tf2t/f/Z+uuUEcBiN2F2Kw4yiLiZQD+FcWyXYAEQfvICddi+AnEO2ycIOISw7UAVxieD/Cyz5mRMohfRSwoqoz+xNuIB+cj9loEB3Pw2448NaitKSLLRck2q5pOI9O9g/t/tkXda8Tbg0+PszB9FN8DuPaXKnKW4YcQn1Xk3HSIry5ps8UQ/2W5aQnxIwBdu7yFcgrxPsRjVXu8HOh0qao30cArp9SZZxDfg3h1wTzKxu5E/LUxX5wKdX5SnAzmDx4A4OIqLbB69yMesE1pKojLjVdoNsfyiPi45hZmAn3uLWdpOtfQOaVmikEs7ovj8hFWpz7EV6mel0L9Xy23FMYlPYZenAx0yDB1/PX6dledmQjikjkXCxqMJS9WtfFCyH9XtSekEF+2dH+P4tzITduTygGfv58a5VCTH5PtXD7EFZiNyUDBhHnsFTBgE0SQIA9pfFtgo6cKGuhooeilaKH41eDs38Ip+f4At1Rq/sjr6NEwQqb/I/DQqsLvaFUjvAx+eWirddAJZnAj1DFJL0mSg/gcIpPkMBkhoyCSJ8lTZIxk0TpKDjXHliJzZPO50dR5ASNSnzeLvIvod0HG/mdkmOC0z8VKnzcQ2M/Yz2vKldduXjp9bleLu0ZWn7vWc+l0JGcaai10yNrUnXLP/8Jf59ewX+c3Wgz+B34Df+vbVrc16zTMVgp9um9bxEfzPU5kPqUtVWxhs6OiWTVW+gIfywB9uXi7CGcGW/zk98k/kmvJ95IfJn/j3uQ+4c5zn3Kfcd+AyF3gLnJfcl9xH3OfR2rUee80a+6vo7EK5mmXUdyfQlrYLTwoZIU9wsPCZEtP6BWGhAlhL3p2N6sTjRdduwbHsG9kq32sgBepc+xurLPW4T9URpYGJ3ym4+8zA05u44QjST8ZIoVtu3qE7fWmdn5LPdqvgcZz8Ww8BWJ8X3w0PhQ/wnCDGd+LvlHs8dRy6bLLDuKMaZ20tZrqisPJ5ONiCq8yKhYM5cCgKOu66Lsc0aYOtZdo5QCwezI4wm9J/v0X23mlZXOfBjj8Jzv3WrY5D+CsA9D7aMs2gGfjve8ArD6mePZSeCfEYt8CONWDw8FXTxrPqx/r9Vt4biXeANh8vV7/+/16ffMD1N8AuKD/A/8leAvFY9bLAAAARGVYSWZNTQAqAAAACAACARIAAwAAAAEAAQAAh2kABAAAAAEAAAAmAAAAAAACoAIABAAAAAEAAAC8oAMABAAAAAEAAAAwAAAAAD7TWhsAAAIDaVRYdFhNTDpjb20uYWRvYmUueG1wAAAAAAA8eDp4bXBtZXRhIHhtbG5zOng9ImFkb2JlOm5zOm1ldGEvIiB4OnhtcHRrPSJYTVAgQ29yZSA2LjAuMCI+CiAgIDxyZGY6UkRGIHhtbG5zOnJkZj0iaHR0cDovL3d3dy53My5vcmcvMTk5OS8wMi8yMi1yZGYtc3ludGF4LW5zIyI+CiAgICAgIDxyZGY6RGVzY3JpcHRpb24gcmRmOmFib3V0PSIiCiAgICAgICAgICAgIHhtbG5zOmV4aWY9Imh0dHA6Ly9ucy5hZG9iZS5jb20vZXhpZi8xLjAvIgogICAgICAgICAgICB4bWxuczp0aWZmPSJodHRwOi8vbnMuYWRvYmUuY29tL3RpZmYvMS4wLyI+CiAgICAgICAgIDxleGlmOlBpeGVsWURpbWVuc2lvbj40ODwvZXhpZjpQaXhlbFlEaW1lbnNpb24+CiAgICAgICAgIDxleGlmOlBpeGVsWERpbWVuc2lvbj4zMzE8L2V4aWY6UGl4ZWxYRGltZW5zaW9uPgogICAgICAgICA8dGlmZjpPcmllbnRhdGlvbj4xPC90aWZmOk9yaWVudGF0aW9uPgogICAgICA8L3JkZjpEZXNjcmlwdGlvbj4KICAgPC9yZGY6UkRGPgo8L3g6eG1wbWV0YT4KHlAlSQAAB/tJREFUeAHtW81v3EQUf95sEOUGf0FKq920qOVTKolENpE4BzVJ1WNVIcIBCQSH0qgS4tJukgNC6qUCpKo3EKgRRy5k7YgAEr0AUtOUtP8GoukO8zz71uNde9Yef6xjj6Vdf4w983u/+c3Me8+7FuMbmM0wUBEGahWx05hpGHAZMII3QqgUA0bwlepuY6wRvNFApRgwgq9UdxtjjeCNBirFgBF8pbrbGGsEbzRQKQbGLHgHbpycgMlTFlgWfpqw2akU/8bYWAwIvaBOhGbi62WMgkfwq1D/5ik8uc+AMRuuwz/w6UJ8I2JxZm4+ogx4emHsAdeMDUvwML5e8KcF49i62zazf/a33LXbrAHATt/o+AvMWeUZSEsvY5vhrfk5mFvwTzbW3CxcgrFB8oM5ImfMWYem6w5a8FLbPhKodTCnpZdCqYs5u3AHTsKlmVbBO86BZavWF5qIP/IUHF/eLRH71FprsO+y1Sg4b4Iz5CotzFp6KdJauX1+svDuTGe9ib8u5Z9Gb4/H8qfBNrbzYxU5E+23mZNfs4laEpiRv2SYdfTCg8VibK7/PpWMgKwtIbEfW/THGBR7eMLPT/Qk+EFMWXORpH7EjLFaEsy6eimI4G12/UQz15kxfofZbAksdtGvdakatKHG6tNitk/SmVKlIw4FJhxo4bhGVJF7cRqY9fVSCMHjiM+yw7B+K+Hq0XVWRrpb/pk++9UKMYlVZTkzdyYN7uQxJTCjO6OPOYlexh60dpaegVsf/QfftnjX9bbO+krhXkDZXzC4tSaBJLDS3s0ynSBKb8OvHakwg0Nn9y/grgFYU29kUHs2VSJm4GG2LuakeqlnY1a0WhH8wtYTgC0LvpMe4bMx2FelCwU4nN/6IQKKOZg9OwH1yS4c7l2GmfkIj2jf4sAvXz90MzSnV2fgLe168nxQYMYWT2lgFno5DvX7/K38nsDNXUh4+m90vdB0lIrVCIhSdIM/E8AyOU+M5+9zsSNgseFcJTYdMujZIuwP9xpgTcVDEoc7rNlNyR10+ZGXjrQ3piX+LXjunWLl5ZNgRn5wcmzwIX7YEzvygFzH0ovsX+keU/bC7yfzwIKnnWxHvD3FNF6e6TrZlrT9ULlu/7EIXFGPUd8Wh3G3NII7eg5TezsMua71/Hl/utTfJ360Uc7S5M7DvDyAWQT6FPAnxayyK2HQqu5gNLDRoA7IPogLMzTNTgtrA697QWsUW4m7RuDg8HM3HOChTZjae36j7WaP5AHm4RDcJ0kIpMkdYX5hc1mBWYg/CWZVHyUQPHVY+GxGWQQcufmk6YJNTbPTglsQV7EdnN1Hd1Z07rC+Ye681F7Yyonc04w5/LzKCn9Zetxxm6VVKGi1J70E2+zHpXum7cN3lt6Ga9yH5MvPyOwF+lyLn6gzHNzII73h70MwJuHi8mWcgoyKzp2Iawa5Yzs34a47EQJc7DyAK/MBrbDX4UXJ1w24I9dLiPkadN2YTYXZi+QygqczUrzZQ+2Xez6b+j4dDPIz8szAaXKXetz7X/+TawX9mU++R3YJ5LqjHYsZO4rv6WFVc6LijspU7XluTdAK4VmFeNA1Qi5oRRC8yDyKcrou7/HZKNwJzA2WBmYPffwjjRnegfblu26kfGzxq+DZhTOCG/v9kbu3prJO0bnN9L/wx1S88/gmflaFR/Vp71iO8uV78D6dzd5Y5avdebAfXx2RHhTcYRv63EVM7Vn3+tYff1NtFTGDvMgz7KN+Bs17XvDqndOz3pWgI8K8r86o9DBjG6MwB7US6VrcMRJ1hoo6w8RtX+f+9PzQ4dYFH+rZmp5KgzuPV3WbOKOKGVt9H2EL26fBXRzMXLTuyhzk44dhjHM9ZtDqBVuqpQkBUACHBowO4uJAjn9vGp0W1KroyKiCIu7Uyzq2g3iFWIe5i+LOUB3IfZKAleoZ1dd4n2rLG7MKS+w3rfcO0N0DePZs+Ns9CuDcG2EZPmiJozJ9o43Trdvw7nZI0Bhk7AFe3I/E3aH7fHuIO3ITVS9bPP4b8PnH4ye/SJhj+fD4puxvN35R+VgOrHCOz1wQVev+ZiJIL0W5FlXsbOdC/+2y+LMCvhlVc9du/QEvb06491lT7k76cmB366l7fmY2XMj2l5+5/vuoOEGqOMNDB25uieFbBMyxBC+z8vg3+YyO8V8t78E5ZxZe+15cU81E9NRR2guxr8GrYenAnjEo9trcn4H/QlJxV3c+hFeuMLeWQe4wtXeniYNmeOYnDrFdfAXP3RD46cfwQUH3Z71HzGKSDF/pc8Ws8ncGyyj4oDSW7JtT2gmDDS84Ez4onkdJXQ22l9Z5Wj68bBcXCqrS/RAf/jQoMNn3Je7oGR3uyBcO88upDbndpBwm5W4cmFU2xwxa/cGov4O9199kJJZv7LRZc+AfQipAWZQl7TTERGJHcVNASeIN2w8OcsQxfC++H4jKHb2tHA6Uqe6wwaDLa3Lu8sessjW24LEyIhc7HgUgz1ZYTuLAzk1ztsG6dbaknUYz57BYg8UvBsSwKBE7cYd14X063BEeeeClLXTiOSl3VA9hJg4bfDLMCjO1GbS38CIHYTbDQCUY0A5aK8GOMbJ0DBjBl65LjUEqBozgVeyYstIxYARfui41BqkYMIJXsWPKSseAEXzputQYpGLACF7FjikrHQNG8KXrUmOQigEjeBU7pqx0DBjBl65LjUEqBozgVeyYstIxYARfui41BqkY+B/pSQGmrIsp4AAAAABJRU5ErkJggg==;" vertex="1" parent="1">
          <mxGeometry x="259.58" y="597" width="109.69" height="28" as="geometry" />
        </mxCell>
        <mxCell id="J9Pbq-aJtwn1_507NRoF-27" value="　　　　　　　のところを因数分解すればいいんじゃない？" style="text;html=1;strokeColor=none;fillColor=none;align=left;verticalAlign=middle;whiteSpace=wrap;rounded=0;fontSize=15;fontColor=#000000;spacing=0;" vertex="1" parent="1">
          <mxGeometry x="264" y="603" width="212" height="30" as="geometry" />
        </mxCell>
      </root>
    </mxGraphModel>
  </diagram>
</mxfile>
